<svg xmlns="http://www.w3.org/2000/svg" viewBox="0 0 512 512">
<path fill="#FF7F50" d="M505,442.7L405.3,343c-4.5-4.5-10.6-7-17-7H372c2.1-2.7,4.1-5.4,6.1-8.2c-0.2,0.1-0.4,0.2-0.6,0.3
	c-5.5,8.5-12.2,16.3-19.9,23.5c-0.3,0.3-0.5,0.5-0.8,0.8c-0.3,0.3-0.6,0.6-0.9,0.9c-0.6,0.6-1.3,1.3-1.9,1.9
	c-0.2,0.2-0.5,0.5-0.7,0.7c-0.9,0.8-1.7,1.7-2.6,2.5c-0.1,0.1-0.1,0.1-0.2,0.2c-4.6,5-9.5,9.5-14.6,13.5v16.2c0,6.4,2.5,12.5,7,17
	l99.7,99.7c9.4,9.4,24.6,9.4,33.9,0l28.3-28.3C514.3,467.3,514.3,452.1,505,442.7z"/>
<path fill="#222222" d="M416,208C416,93.1,322.9,0,208,0S0,93.1,0,208s93.1,208,208,208c48.3,0,92.7-16.4,128-44v2.1
	c5.4-8.2,11.9-15.8,19.4-22.7c5.3-5.7,11-10.9,17.1-15.4H372C399.6,300.7,416,256.3,416,208z"/>
<path fill="#5F9AE0" d="M355.4,272c-6.6,20.3-17.9,37.8-33.8,52.6c-14.8,15.9-32.3,27.2-52.6,33.8c-19.5,10.2-40.5,14.9-63,14.1
	c-29.5-0.1-57-7.5-82.5-22.3c-11-8.5-22.1-17-33.1-25.6c-20.3-20.4-34.3-44.4-42-72.1c-1.9-14.5-3.9-29-5.8-43.5
	c-0.8-22.5,3.8-43.5,14.1-63c6.6-20.3,17.9-37.8,33.8-52.6c14.8-15.9,32.3-27.2,52.6-33.8c19.5-10.2,40.5-14.9,63-14.1
	c29.5,0.1,57,7.5,82.5,22.3c11,8.5,22.1,17,33.1,25.6c20.3,20.4,34.3,44.4,42,72.1c1.9,14.5,3.9,29,5.8,43.5
	C370.3,231.5,365.7,252.5,355.4,272z"/>
<path fill="#92C3F4" d="M349.6,278.6c-14.8,15.9-32.3,27.2-52.6,33.8c-19.5,10.2-40.5,14.9-63,14.1c-29.5-0.1-57-7.5-82.5-22.3
	c-11-8.5-22.1-17-33.1-25.6c-20.3-20.4-34.3-44.4-42-72.1c-1.9-14.5-3.9-29-5.8-43.5c-0.8-22.5,3.8-43.5,14.1-63
	c0.1-0.5,0.3-0.9,0.5-1.4c-13.1,13.7-22.6,29.4-28.5,47.4c-10.2,19.5-14.9,40.5-14.1,63c1.9,14.5,3.9,29,5.8,43.5
	c7.8,27.7,21.8,51.7,42,72.1c11,8.5,22.1,17,33.1,25.6c25.5,14.8,53,22.2,82.5,22.3c22.5,0.8,43.5-3.8,63-14.1
	c20.3-6.6,37.8-17.9,52.6-33.8c15.6-14.5,26.7-31.6,33.3-51.3C353.2,275.1,351.5,276.9,349.6,278.6z"/>
</svg>
